<svg id="visual" viewBox="0 0 900 600" width="900" height="600" xmlns="http://www.w3.org/2000/svg" xmlns:xlink="http://www.w3.org/1999/xlink" version="1.1"><rect x="0" y="0" width="900" height="600" fill="#001220"></rect><defs><linearGradient id="grad1_0" x1="33.3%" y1="0%" x2="100%" y2="100%"><stop offset="20%" stop-color="#001220" stop-opacity="1"></stop><stop offset="80%" stop-color="#001220" stop-opacity="1"></stop></linearGradient></defs><defs><linearGradient id="grad2_0" x1="0%" y1="0%" x2="66.7%" y2="100%"><stop offset="20%" stop-color="#001220" stop-opacity="1"></stop><stop offset="80%" stop-color="#001220" stop-opacity="1"></stop></linearGradient></defs><g transform="translate(900, 0)"><path d="M0 459.7C-59.6 453.3 -119.1 446.8 -175.9 424.7C-232.7 402.6 -286.8 364.8 -316.1 316.1C-345.3 267.3 -349.8 207.6 -369.6 153.1C-389.4 98.6 -424.5 49.3 -459.7 0L0 0Z" fill="#ae9a7b"></path></g><g transform="translate(0, 600)"><path d="M0 -459.7C68.2 -454.4 136.4 -449.2 167.6 -404.7C198.9 -360.1 193.2 -276.3 238.3 -238.3C283.4 -200.3 379.3 -208 424.7 -175.9C470.1 -143.8 464.9 -71.9 459.7 0L0 0Z" fill="#ae9a7b"></path></g></svg>